<?xml version="1.0"?>
<svg xmlns="http://www.w3.org/2000/svg" xmlns:xlink="http://www.w3.org/1999/xlink" version="1.1" viewBox="0 0 192 192" width="32px" height="32px"><g fill="none" fill-rule="nonzero" stroke="none" stroke-width="1" stroke-linecap="butt" stroke-linejoin="miter" stroke-miterlimit="10" stroke-dasharray="" stroke-dashoffset="0" font-family="none" font-weight="none" font-size="none" text-anchor="none" style="mix-blend-mode: normal"><path d="M0,192v-192h192v192z" fill="none"/><g id="&#x421;&#x43B;&#x43E;&#x439;_1" fill="#ef510d"><path d="M126,168v-54h16.074l2.802,-24h-18.876v-13.371c0,-6.291 -0.393,-10.581 8.631,-10.581l9.369,-0.006v-19.437c-3,-0.264 -7.461,-0.855 -15.408,-0.855c-16.593,0 -26.592,10.128 -26.592,28.728v15.522h-21v24h21v54z" id="f_2_"/><path d="M150,171h-108c-11.577,0 -21,-9.423 -21,-21v-108c0,-11.577 9.423,-21 21,-21h108c11.577,0 21,9.423 21,21v108c0,11.577 -9.423,21 -21,21zM42,27c-8.271,0 -15,6.729 -15,15v108c0,8.271 6.729,15 15,15h108c8.271,0 15,-6.729 15,-15v-108c0,-8.271 -6.729,-15 -15,-15z"/></g></g></svg>
