<?xml version="1.0"?>
<svg xmlns="http://www.w3.org/2000/svg" xmlns:xlink="http://www.w3.org/1999/xlink" version="1.1" viewBox="0 0 192 192" width="32px" height="32px"><g fill="none" fill-rule="none" stroke="none" stroke-width="1" stroke-linecap="butt" stroke-linejoin="miter" stroke-miterlimit="10" stroke-dasharray="" stroke-dashoffset="0" font-family="none" font-weight="none" font-size="none" text-anchor="none" style="mix-blend-mode: normal"><path d="M0,192v-192h192v192z" fill="none" fill-rule="nonzero"/><g id="&#x421;&#x43B;&#x43E;&#x439;_1" fill="#ef510d"><path d="M107.775,90c2.04,15 -4.113,36.51 -29.283,36.51c-16.842,0 -30.492,-13.662 -30.492,-30.501c0,-16.839 13.65,-30.495 30.492,-30.495c7.902,0 15.102,3.003 20.517,7.935c-6.381,6.027 -6.171,6.381 -8.679,8.889c-3.132,-2.592 -6.549,-4.452 -11.838,-4.452c-10.005,0 -17.811,8.109 -17.811,18.114c0,10.005 7.809,18.114 17.811,18.114c9.885,0 13.656,-4.263 16.239,-12.09c-4.77,0 -16.728,0.015 -16.728,0.015v-12.039c-0.003,0 23.811,0 29.772,0z" fill-rule="evenodd"/><path d="M96,174c-43.011,0 -78,-34.989 -78,-78c0,-43.011 34.989,-78 78,-78c43.011,0 78,34.989 78,78c0,43.011 -34.989,78 -78,78zM96,24c-39.699,0 -72,32.301 -72,72c0,39.699 32.301,72 72,72c39.699,0 72,-32.301 72,-72c0,-39.699 -32.301,-72 -72,-72z" fill-rule="nonzero"/><path d="M144,90h-9v-9h-9v9h-9v9h9v9h9v-9h9z" fill-rule="evenodd"/></g></g></svg>
