<?xml version="1.0"?>
<svg xmlns="http://www.w3.org/2000/svg" xmlns:xlink="http://www.w3.org/1999/xlink" version="1.1" viewBox="0 0 192 192" width="32px" height="32px"><g fill="none" fill-rule="nonzero" stroke="none" stroke-width="1" stroke-linecap="butt" stroke-linejoin="miter" stroke-miterlimit="10" stroke-dasharray="" stroke-dashoffset="0" font-family="none" font-weight="none" font-size="none" text-anchor="none" style="mix-blend-mode: normal"><path d="M0,192v-192h192v192z" fill="none"/><g fill="#ef510d"><path d="M34.56,15.36c-10.55814,0 -19.2,8.64186 -19.2,19.2v122.88c0,10.55814 8.64186,19.2 19.2,19.2h122.88c10.55814,0 19.2,-8.64186 19.2,-19.2v-122.88c0,-10.55814 -8.64186,-19.2 -19.2,-19.2zM34.56,23.04h122.88c6.40698,0 11.52,5.11302 11.52,11.52v122.88c0,6.40698 -5.11302,11.52 -11.52,11.52h-122.88c-6.40698,0 -11.52,-5.11302 -11.52,-11.52v-122.88c0,-6.40698 5.11302,-11.52 11.52,-11.52zM96,30.72c-19.04349,0 -34.56,15.51651 -34.56,34.56c0,19.04349 15.51651,34.56 34.56,34.56c19.04349,0 34.56,-15.51651 34.56,-34.56c0,-19.04349 -15.51651,-34.56 -34.56,-34.56zM96,38.4c14.89443,0 26.88,11.98557 26.88,26.88c0,14.89443 -11.98557,26.88 -26.88,26.88c-14.89443,0 -26.88,-11.98557 -26.88,-26.88c0,-14.89443 11.98557,-26.88 26.88,-26.88zM96,46.08c-10.55838,0 -19.2,8.64162 -19.2,19.2c0,10.55838 8.64162,19.2 19.2,19.2c10.55838,0 19.2,-8.64162 19.2,-19.2c0,-10.55838 -8.64162,-19.2 -19.2,-19.2zM96,53.76c6.4078,0 11.52,5.1122 11.52,11.52c0,6.4078 -5.1122,11.52 -11.52,11.52c-6.4078,0 -11.52,-5.1122 -11.52,-11.52c0,-6.4078 5.1122,-11.52 11.52,-11.52zM126.5325,97.905c-2.22106,0.02895 -4.45374,0.692 -6.3975,2.04h-0.0075l-0.0075,0.0075c-7.09783,4.95975 -15.40942,7.5675 -24.12,7.5675c-8.68878,0 -16.98535,-2.59653 -24.0825,-7.53c-5.18743,-3.61288 -12.4325,-2.30897 -16.035,2.88c-3.6079,5.186 -2.30493,12.42784 2.88,16.035c4.42151,3.07352 9.42939,4.8421 14.3775,6.705l-16.005,16.005c-4.4662,4.4662 -4.4662,11.8238 0,16.29c2.23293,2.23293 5.20392,3.375 8.145,3.375c2.94108,0 5.91208,-1.14207 8.145,-3.375l22.575,-22.575l22.575,22.575c2.23293,2.23293 5.20392,3.375 8.145,3.375c2.94108,0 5.91208,-1.14207 8.145,-3.375c4.4662,-4.4662 4.4662,-11.8238 0,-16.29l-15.5925,-15.6c4.89707,-1.86353 9.66287,-4.10957 14.04,-7.1625c5.17641,-3.61491 6.47281,-10.85979 2.8575,-16.0425c-1.80641,-2.59081 -4.52387,-4.20645 -7.4325,-4.725c-0.72716,-0.12964 -1.46465,-0.18965 -2.205,-0.18zM127.395,105.6c0.96209,0.17073 1.85837,0.72061 2.475,1.605c1.23845,1.77536 0.82149,4.10865 -0.9525,5.3475c-5.40755,3.77162 -11.35432,6.51498 -17.625,8.235l-6.3675,1.7475l4.665,4.6725l19.845,19.8375c1.53188,1.53188 1.53188,3.89812 0,5.43c-0.76995,0.76995 -1.72392,1.125 -2.715,1.125c-0.99108,0 -1.94504,-0.35505 -2.715,-1.125l-28.005,-28.005l-28.005,28.005c-0.76995,0.76995 -1.72392,1.125 -2.715,1.125c-0.99108,0 -1.94504,-0.35505 -2.715,-1.125c-1.53188,-1.53188 -1.53188,-3.89812 0,-5.43l24.51,-24.51l-6.3675,-1.7475c-6.24793,-1.7171 -12.16871,-4.44409 -17.5575,-8.19c-1.78082,-1.23892 -2.19818,-3.56024 -0.96,-5.34v-0.0075c1.22822,-1.7691 3.56935,-2.1932 5.34,-0.96v0.0075c8.37037,5.81853 18.24293,8.9025 28.47,8.9025c10.24794,0 20.13977,-3.09776 28.515,-8.9475c0.89119,-0.61804 1.91791,-0.82323 2.88,-0.6525z"/></g></g></svg>
