<?xml version="1.0"?>
<svg xmlns="http://www.w3.org/2000/svg" xmlns:xlink="http://www.w3.org/1999/xlink" version="1.1" viewBox="0 0 192 192" width="32px" height="32px"><g fill="none" fill-rule="nonzero" stroke="none" stroke-width="1" stroke-linecap="butt" stroke-linejoin="miter" stroke-miterlimit="10" stroke-dasharray="" stroke-dashoffset="0" font-family="none" font-weight="none" font-size="none" text-anchor="none" style="mix-blend-mode: normal"><path d="M0,192v-192h192v192z" fill="none"/><g id="&#x421;&#x43B;&#x43E;&#x439;_1" fill="#ef510d"><path d="M78.192,135.009c36.228,0 56.04,-30.015 56.04,-56.04c0,-0.852 -0.018,-1.701 -0.057,-2.547c3.846,-2.781 7.188,-6.249 9.825,-10.197c-3.528,1.569 -7.326,2.625 -11.31,3.102c4.065,-2.439 7.188,-6.297 8.661,-10.896c-3.807,2.256 -8.019,3.897 -12.507,4.782c-3.594,-3.828 -8.712,-6.222 -14.376,-6.222c-10.878,0 -19.698,8.82 -19.698,19.695c0,1.545 0.174,3.048 0.51,4.491c-16.368,-0.822 -30.885,-8.661 -40.596,-20.577c-1.692,2.91 -2.667,6.291 -2.667,9.9c0,6.834 3.477,12.867 8.766,16.395c-3.231,-0.099 -6.267,-0.987 -8.922,-2.463c-0.003,0.081 -0.003,0.165 -0.003,0.252c0,9.54 6.789,17.502 15.801,19.308c-1.653,0.45 -3.396,0.693 -5.193,0.693c-1.269,0 -2.502,-0.126 -3.702,-0.354c2.508,7.824 9.777,13.518 18.399,13.68c-6.741,5.283 -15.234,8.43 -24.462,8.43c-1.59,0 -3.156,-0.09 -4.698,-0.273c8.715,5.58 19.065,8.841 30.189,8.841"/><path d="M96,174c-43.011,0 -78,-34.989 -78,-78c0,-43.011 34.989,-78 78,-78c43.011,0 78,34.989 78,78c0,43.011 -34.989,78 -78,78zM96,24c-39.699,0 -72,32.301 -72,72c0,39.699 32.301,72 72,72c39.699,0 72,-32.301 72,-72c0,-39.699 -32.301,-72 -72,-72z"/></g></g></svg>
