<?xml version="1.0"?>
<svg xmlns="http://www.w3.org/2000/svg" xmlns:xlink="http://www.w3.org/1999/xlink" version="1.1" viewBox="0 0 192 192" width="32px" height="32px"><g fill="none" fill-rule="nonzero" stroke="none" stroke-width="1" stroke-linecap="butt" stroke-linejoin="miter" stroke-miterlimit="10" stroke-dasharray="" stroke-dashoffset="0" font-family="none" font-weight="none" font-size="none" text-anchor="none" style="mix-blend-mode: normal"><path d="M0,192v-192h192v192z" fill="none"/><g id="&#x421;&#x43B;&#x43E;&#x439;_1" fill="#ef510d"><path d="M125.925,95.718c0,0 11.922,-17.466 13.107,-22.992c0.396,-1.974 -0.471,-3.726 -2.526,-3.726c0,0 -6.87,0 -10.344,0c-2.37,0 -3.237,1.674 -3.948,3.174c0,0 -5.592,12.24 -12.396,19.749c-2.184,2.427 -2.742,3.321 -3.948,3.321c-0.972,0 -0.87,-0.648 -0.87,-2.838v-19.188c0,-2.688 -1.419,-4.218 -3.63,-4.218h-16.581c-1.263,0 -1.854,1.104 -1.854,2.106c0,2.529 4.068,3.468 4.068,10.32v14.133c0,2.844 -0.357,3.948 -1.698,3.948c-3.552,0 -12.102,-12.609 -16.839,-26.508c-0.951,-2.838 -2.076,-3.999 -4.761,-3.999h-10.344c-1.5,0 -2.607,1.398 -2.607,2.898c0,2.763 3.237,15.741 15.951,32.877c8.529,11.529 20.133,17.859 30.24,17.859c6.159,0 8.052,-0.933 8.052,-3.54v-8.844c0,-2.211 0.474,-3.159 1.737,-3.159c1.422,0 3.732,0.594 9.594,6.375c6.954,6.633 7.23,9.534 11.019,9.534h11.607c1.185,0 2.289,-0.69 2.289,-2.664c0,-2.607 -3.396,-7.332 -8.607,-12.861c-2.133,-2.841 -5.607,-5.955 -6.711,-7.377c-1.578,-1.659 -1.104,-2.643 0,-4.38z"/><path d="M147,168h-102c-11.58,0 -21,-9.423 -21,-21v-102c0,-11.577 9.42,-21 21,-21h102c11.58,0 21,9.423 21,21v102c0,11.577 -9.42,21 -21,21zM45,30c-8.271,0 -15,6.729 -15,15v102c0,8.271 6.729,15 15,15h102c8.271,0 15,-6.729 15,-15v-102c0,-8.271 -6.729,-15 -15,-15z"/></g></g></svg>
